<svg id="Layer_3" enable-background="new 0 0 64 64" height="512" viewBox="0 0 64 64" width="512" xmlns="http://www.w3.org/2000/svg"><path d="m26.379 2.5h4.243v2h-4.243z" transform="matrix(.707 -.707 .707 .707 5.873 21.178)"/><path d="m27.5 10.379h2v4.243h-2z" transform="matrix(.707 -.707 .707 .707 -.491 23.814)"/><path d="m28 7h4v2h-4z"/><path d="m60 37h-8v-5c0-.552-.448-1-1-1h-12c-.552 0-1 .448-1 1v5h-5v-2c0-5.907-3.226-11.063-8-13.835v-7.165c0-.552-.448-1-1-1h-1v-3-4-4c0-.552-.448-1-1-1h-10c-.552 0-1 .448-1 1v11h-1c-.552 0-1 .448-1 1v7.165c-4.774 2.772-8 7.928-8 13.835v23c0 2.757 2.243 5 5 5h24 1 29c1.654 0 3-1.346 3-3v-20c0-1.654-1.346-3-3-3zm-20-4h10v4h-10zm-19-24h-1c-.551 0-1-.449-1-1s.449-1 1-1h1zm-8-6h8v2h-1c-1.654 0-3 1.346-3 3s1.346 3 3 3h1v2h-8zm-2 12h12v5.178c-1.855-.754-3.878-1.178-6-1.178s-4.145.424-6 1.178zm-8 43v-23c0-7.72 6.28-14 14-14s14 6.28 14 14v2h-1c-1.654 0-3 1.346-3 3v4.666c-1.316-.932-3.253-.828-4.414.334l-.586.586c-.533.535-1.465.535-2 0l-.585-.586c-1.289-1.289-3.541-1.289-4.829 0l-.586.586c-.533.535-1.465.535-2 0l-.585-.586c-1.162-1.162-3.1-1.266-4.415-.334v-7.666h18v-2h-19c-.552 0-1 .447-1 1v20c0 1.654 1.346 3 3 3h19v1c0 .352.072.686.184 1h-21.184c-1.654 0-3-1.346-3-3zm4-10.586 1-1c.533-.535 1.465-.535 2 0l.585.586c1.289 1.289 3.541 1.289 4.829 0l.586-.586c.533-.535 1.465-.535 2 0l.585.586c.645.645 1.502 1 2.415 1s1.77-.355 2.414-1l.586-.586c.533-.535 1.465-.535 2 0l1 1v9.586h-19c-.551 0-1-.448-1-1zm54 12.586c0 .552-.449 1-1 1h-29-1c-.551 0-1-.448-1-1v-20c0-.552.449-1 1-1h30c.551 0 1 .448 1 1z"/><path d="m58 43h-26c-.552 0-1 .447-1 1v14c0 .553.448 1 1 1h26c.552 0 1-.447 1-1v-14c0-.553-.448-1-1-1zm-1 14h-24v-12h24z"/><path d="m44 48h2v2h-2z"/><path d="m44 52h2v2h-2z"/><path d="m42 50h2v2h-2z"/><path d="m46 50h2v2h-2z"/><path d="m53.684 6.949c1.582.527 2.84 1.786 3.367 3.367.137.409.518.684.949.684s.812-.275.949-.684c.527-1.582 1.786-2.84 3.367-3.367.409-.137.684-.518.684-.949s-.275-.812-.684-.949c-1.582-.527-2.84-1.786-3.367-3.367-.137-.409-.518-.684-.949-.684s-.812.275-.949.684c-.527 1.582-1.786 2.84-3.367 3.367-.409.137-.684.518-.684.949s.275.812.684.949zm4.316-2.753c.492.701 1.103 1.312 1.804 1.804-.701.492-1.312 1.103-1.804 1.804-.492-.701-1.103-1.312-1.804-1.804.701-.492 1.312-1.103 1.804-1.804z"/><path d="m33.684 20.949c1.582.527 2.84 1.786 3.367 3.367.137.409.518.684.949.684s.812-.275.949-.684c.527-1.582 1.786-2.84 3.367-3.367.409-.137.684-.518.684-.949s-.275-.812-.684-.949c-1.582-.527-2.84-1.786-3.367-3.367-.137-.409-.518-.684-.949-.684s-.812.275-.949.684c-.527 1.582-1.786 2.84-3.367 3.367-.409.137-.684.518-.684.949s.275.812.684.949zm4.316-2.753c.492.701 1.103 1.312 1.804 1.804-.701.492-1.312 1.103-1.804 1.804-.492-.701-1.103-1.312-1.804-1.804.701-.492 1.312-1.103 1.804-1.804z"/></svg>